<svg xmlns="http://www.w3.org/2000/svg" style="display:none">
  <symbol id="home" viewBox="0 0 24 24" fill="none" stroke="currentColor" stroke-width="2">
    <path d="M3 10.5L12 3l9 7.5v9a1.5 1.5 0 0 1-1.5 1.5H4.5A1.5 1.5 0 0 1 3 19.5v-9Z"/><path d="M9 21v-6h6v6"/>
  </symbol>
  <symbol id="chevron-down" viewBox="0 0 24 24" fill="none" stroke="currentColor" stroke-width="2">
    <path d="M6 9l6 6 6-6"/>
  </symbol>
  <symbol id="phone" viewBox="0 0 24 24" fill="none" stroke="currentColor" stroke-width="2">
    <path d="M22 16.92v3a2 2 0 0 1-2.18 2A19.86 19.86 0 0 1 3.08 5.18 2 2 0 0 1 5 3h3a2 2 0 0 1 2 1.72c.12.9.3 1.77.54 2.61a2 2 0 0 1-.45 2.11l-1.27 1.27a16 16 0 0 0 6.86 6.86l1.27-1.27a2 2 0 0 1 2.11-.45c.84.24 1.71.42 2.61.54A2 2 0 0 1 22 16.92z"/>
  </symbol>
  <symbol id="search" viewBox="0 0 24 24" fill="none" stroke="currentColor" stroke-width="2">
    <circle cx="11" cy="11" r="8"/><path d="M21 21l-4.35-4.35"/>
  </symbol>
  <symbol id="globe" viewBox="0 0 24 24" fill="none" stroke="currentColor" stroke-width="2">
    <circle cx="12" cy="12" r="10"/><path d="M2 12h20M12 2a15.3 15.3 0 0 1 4 10 15.3 15.3 0 0 1-4 10 15.3 15.3 0 0 1-4-10 15.3 15.3 0 0 1 4-10"/>
  </symbol>
  <symbol id="link" viewBox="0 0 24 24" fill="none" stroke="currentColor" stroke-width="2">
    <path d="M10 13a5 5 0 0 1 7 0l2 2a5 5 0 0 1-7 7l-2-2M14 11a5 5 0 0 1-7 0l-2-2a5 5 0 0 1 7-7l2 2"/>
  </symbol>
</svg>
